<?xml version="1.0" encoding="UTF-8"?>
<svg id="Layer_1" data-name="Layer 1" xmlns="http://www.w3.org/2000/svg" viewBox="0 0 200 80">
  <defs>
    <style>
      .cls-1, .cls-2 {
        fill: #4f4c83;
      }

      .cls-3 {
        stroke: #30320b;
        stroke-width: 4.3px;
      }

      .cls-3, .cls-4 {
        fill: none;
        stroke-miterlimit: 10;
      }

      .cls-5 {
        fill: #30320b;
      }

      .cls-6 {
        fill: #f9e606;
      }

      .cls-7 {
        fill: #c3497c;
        font-family: BookmanOldStyle-BoldItalic, 'Bookman Old Style';
        font-size: 7.59px;
        font-style: italic;
        font-weight: 700;
        letter-spacing: 0em;
      }

      .cls-4 {
        stroke: #504d84;
        stroke-width: 1.09px;
      }

      .cls-2 {
        font-family: Poppins-Medium, Poppins;
        font-size: 7.57px;
        font-weight: 500;
        letter-spacing: 0em;
      }
    </style>
  </defs>
  <g>
    <path class="cls-1" d="M94.17,31.16h.05l2.8-23.27h5.44l-5.3,35.21h-5.96l-5.3-35.21h5.44l2.83,23.27Z"/>
    <path class="cls-1" d="M117.54,15.81h-7.81v5.21h7.1l-1.19,7.93h-5.91v6.21h8.33l-1.19,7.93h-12.23V7.88h11.71l1.19,7.93Z"/>
    <path class="cls-1" d="M130.69,7.88c1.9.03,3.28.77,4.14,2.21.86,1.44,1.4,3.05,1.63,4.81.03.35.06.71.08,1.08.02.38.04.74.04,1.08,0,2.55-.41,4.72-1.23,6.5-.82,1.78-1.8,3.31-2.92,4.6.74,2.7,1.59,5.29,2.55,7.79.96,2.5,1.98,4.88,3.08,7.14l-4.25,5.34c-1.57-3.22-2.96-6.69-4.18-10.4-1.22-3.71-2.31-7.54-3.28-11.47.24-.34.53-.73.88-1.16s.7-.89,1.07-1.38c.63-.86,1.21-1.8,1.75-2.82.53-1.02.8-2.06.8-3.12,0-.83-.16-1.39-.49-1.68-.32-.29-.68-.45-1.06-.47-.13-.03-.25-.04-.37-.04h-.53l-8.24-.04,1.19-7.97h9.36ZM126.18,43.09h-5.08v-26.16h5.08v26.16Z"/>
    <path class="cls-1" d="M153.56,15.81h-5.41v27.28h-5.08V15.81h-5.41l1.19-7.93h13.53l1.19,7.93Z"/>
    <path class="cls-1" d="M168.71,15.81h-7.81v5.21h7.1l-1.19,7.93h-5.91v6.21h8.33l-1.19,7.93h-12.23V7.88h11.71l1.19,7.93Z"/>
    <path class="cls-1" d="M175.45,43.09h-5.77l5.08-18.45-4.65-16.77h5.77l2.26,9.7,2.26-9.7h5.77l-4.65,16.77,5.08,18.45h-5.77l-2.68-11.25-2.68,11.25Z"/>
  </g>
  <g>
    <path class="cls-1" d="M89.89,61.68h-.26c-.96,0-1.75-.64-2.36-1.93s-.91-2.78-.91-4.48c0-1.07.17-2.03.5-2.87s.93-1.27,1.78-1.27h1.17s.35,2.38.35,2.38h-1.17c-.06,0-.13.02-.22.03s-.18.04-.28.1c-.15.09-.29.28-.41.55-.13.27-.19.72-.19,1.33,0,1.01.19,1.9.57,2.66.38.76.92,1.14,1.61,1.14h.04s.03,0,.04-.01h.08l-.35,2.38Z"/>
    <path class="cls-1" d="M91.92,53.88v.45c.13-.22.28-.38.43-.47.15-.09.32-.14.5-.15v2.22c-.18.02-.34.09-.5.21-.16.13-.28.34-.38.64v4.9h-1.34v-7.8h1.28Z"/>
    <path class="cls-1" d="M96.96,61.68h-1.35c-.67,0-1.25-.47-1.73-1.42-.48-.95-.72-2.07-.72-3.37,0-.77.12-1.46.37-2.07s.71-.92,1.38-.92h2.04s0,7.79,0,7.79ZM95.62,55.98h-.43s-.08.01-.13.02c-.05,0-.1.01-.14.03-.1.04-.19.14-.27.28-.08.15-.12.4-.12.75v.13c.01.56.12,1.08.32,1.55.2.48.45.75.77.83v-3.59Z"/>
    <path class="cls-1" d="M99.8,53.88c.57,0,.97.25,1.18.74.22.48.32,1.24.32,2.27v4.79h-1.34v-4.47c0-.49-.04-.81-.09-.97s-.22-.24-.5-.25h-.32v5.68h-1.34v-7.8h2.08Z"/>
    <path class="cls-1" d="M105.08,61.68h-.81c-.67,0-1.25-.47-1.73-1.42-.48-.95-.72-2.07-.72-3.37,0-1.1.16-1.91.46-2.43.3-.52.79-.77,1.48-.75h.28c.46,0,.8.12,1.02.35.22.23.37.49.45.76.06.21.09.4.1.58,0,.18.01.32.01.41v.05c0,.8-.14,1.47-.43,2.02-.28.55-.6,1.01-.94,1.39-.03.03-.05.05-.08.08-.03.03-.05.06-.08.08.18.07.33.11.45.12.12.01.24.02.35.02h.53l-.33,2.11ZM104.25,56.2c0-.14-.03-.23-.08-.28-.06-.05-.12-.08-.19-.09-.02,0-.05-.01-.07-.01h-.07c-.21,0-.37.1-.48.29-.11.19-.17.48-.17.87,0,.05,0,.1,0,.15,0,.05,0,.1.01.16,0,.1.01.21.03.31s.03.21.05.31c.05-.05.12-.12.19-.19.08-.08.15-.17.23-.27.11-.14.21-.29.3-.45.1-.16.16-.33.21-.5,0-.05.02-.1.02-.15,0-.05.01-.09.01-.14h0Z"/>
    <path class="cls-1" d="M108.49,55.92h-.6c-.14,0-.24.03-.3.07-.06.04-.08.12-.08.24,0,.05,0,.1.02.15.01.05.03.09.05.14,0,.03.02.04.02.06s.01.03.02.05l.59,1.37c.11.27.21.55.29.84.08.29.12.61.12.96,0,.5-.09.94-.28,1.32-.19.38-.45.58-.77.58h-1.36l-.33-2.11h.74s.03.02.05.02c.02,0,.04,0,.06,0s.04,0,.06,0c.02,0,.04,0,.06,0h.04c.06,0,.1-.01.15-.04s.06-.08.06-.17c0-.03,0-.07-.01-.12s-.02-.09-.03-.13c0-.02-.02-.05-.03-.08-.01-.03-.02-.06-.03-.08-.02-.03-.03-.07-.05-.1-.01-.03-.03-.07-.03-.09l-.57-1.37c-.11-.26-.21-.53-.29-.81s-.12-.59-.12-.94c0-.09,0-.21.02-.35.02-.14.05-.28.09-.43.07-.26.18-.49.35-.7s.38-.32.67-.32h1.12s.33,2.03.33,2.03Z"/>
    <path class="cls-1" d="M116.48,57.17h-.33v4.51h-2.71c-.69,0-1.18-.22-1.45-.67s-.43-.94-.47-1.47c0-.08,0-.15-.01-.22,0-.07,0-.14,0-.21,0-.67.1-1.27.29-1.8.19-.53.43-.98.72-1.35-.2-.33-.38-.68-.53-1.05s-.23-.82-.23-1.33c0-.05,0-.1,0-.15,0-.05,0-.1,0-.15.03-.54.16-1.03.39-1.48.24-.45.66-.68,1.27-.68h1.9s.35,2.38.35,2.38h-1.54c-.25,0-.42.03-.53.07s-.16.18-.16.43c0,.05,0,.1.01.15s.02.1.03.16c.04.13.09.26.16.38.07.13.14.24.21.36.06.09.12.17.17.24.06.07.1.14.14.19l.47.65c-.08.08-.17.17-.28.29-.11.12-.22.25-.34.39-.17.21-.32.44-.47.7-.15.26-.25.53-.3.79-.01.06-.02.12-.03.19,0,.07-.01.13-.01.19,0,.24.05.4.14.48.09.08.2.13.31.14.04,0,.07.01.1.01h.96v-4.52h1.78v2.38Z"/>
    <path class="cls-1" d="M124.33,61.68h-1.49v-4.84h-1.57v3.73c0,.19.01.38.02.57s.03.37.07.54l-1.35,1.6c-.1-.36-.16-.74-.19-1.13s-.04-.79-.04-1.18v-9.85h1.49v3.33h1.57v-3.33h1.49v10.56Z"/>
    <path class="cls-1" d="M126.72,53.7h.59c.47,0,.83.17,1.07.48.24.31.4.66.5,1.04.08.31.13.6.14.88.01.28.02.46.02.56h0c0,.15,0,.29,0,.43,0,.14-.01.28-.02.41-.07,1.1-.28,2.11-.63,3.04-.34.92-.8,1.38-1.36,1.38s-1.02-.46-1.36-1.38c-.34-.92-.55-1.93-.63-3.04,0-.14-.02-.27-.02-.41,0-.14,0-.28,0-.41h0c0-.11,0-.29.02-.57.01-.28.06-.57.14-.88.09-.38.26-.73.5-1.04.24-.31.59-.47,1.07-.47h0ZM127.13,59.61s.08-.11.13-.2c.1-.21.2-.54.28-.98.09-.44.13-.95.13-1.54,0-.38-.06-.65-.17-.82s-.27-.25-.48-.25-.36.08-.48.25-.17.44-.17.82c0,.58.04,1.09.13,1.53.09.44.18.76.28.98.04.09.08.15.13.2.04.05.08.07.11.07.03,0,.07-.01.11-.06Z"/>
    <path class="cls-1" d="M130.89,53.23h-1.34v-2.11h1.34v2.11ZM130.89,61.68h-1.34v-7.8h1.34v7.8Z"/>
    <path class="cls-1" d="M134.03,55.92h-.6c-.14,0-.24.03-.3.07-.06.04-.08.12-.08.24,0,.05,0,.1.02.15.01.05.03.09.05.14,0,.03.02.04.02.06s.01.03.02.05l.59,1.37c.11.27.21.55.29.84.08.29.12.61.12.96,0,.5-.09.94-.28,1.32-.19.38-.45.58-.77.58h-1.36l-.33-2.11h.74s.03.02.05.02c.02,0,.04,0,.06,0s.04,0,.06,0c.02,0,.04,0,.06,0h.04c.06,0,.1-.01.15-.04s.06-.08.06-.17c0-.03,0-.07-.01-.12s-.02-.09-.03-.13c0-.02-.02-.05-.03-.08-.01-.03-.02-.06-.03-.08-.02-.03-.03-.07-.05-.1-.01-.03-.03-.07-.03-.09l-.57-1.37c-.11-.26-.21-.53-.29-.81s-.12-.59-.12-.94c0-.09,0-.21.02-.35.02-.14.05-.28.09-.43.07-.26.18-.49.35-.7s.38-.32.67-.32h1.12s.33,2.03.33,2.03Z"/>
    <path class="cls-1" d="M136.12,53.88h.7v2.04h-.7v2.97c0,.19.02.35.07.48.04.13.14.2.28.22h.53l-.34,2.09h-.61c-.37,0-.67-.16-.91-.48-.24-.32-.36-.95-.36-1.89v-3.39h-.3v-2.04h.3v-1.52l1.34-.74v2.26Z"/>
    <path class="cls-1" d="M139.75,55.92h-.6c-.14,0-.24.03-.3.07-.06.04-.08.12-.08.24,0,.05,0,.1.02.15.01.05.03.09.05.14,0,.03.02.04.02.06s.01.03.02.05l.59,1.37c.11.27.21.55.29.84.08.29.12.61.12.96,0,.5-.09.94-.28,1.32-.19.38-.45.58-.77.58h-1.36l-.33-2.11h.74s.03.02.05.02c.02,0,.04,0,.06,0s.04,0,.06,0c.02,0,.04,0,.06,0h.04c.06,0,.1-.01.15-.04s.06-.08.06-.17c0-.03,0-.07-.01-.12s-.02-.09-.03-.13c0-.02-.02-.05-.03-.08-.01-.03-.02-.06-.03-.08-.02-.03-.03-.07-.05-.1-.01-.03-.03-.07-.03-.09l-.57-1.37c-.11-.26-.21-.53-.29-.81s-.12-.59-.12-.94c0-.09,0-.21.02-.35.02-.14.05-.28.09-.43.07-.26.18-.49.35-.7s.38-.32.67-.32h1.12s.33,2.03.33,2.03Z"/>
    <path class="cls-1" d="M144.56,64.73c-.38-1.1-.66-2.24-.85-3.41-.19-1.17-.29-2.39-.29-3.67,0-1.03.06-2.01.2-2.93s.32-1.83.57-2.73c.05-.18.1-.36.16-.54.05-.18.11-.36.17-.54l1.28,1.11c-.25.9-.46,1.82-.62,2.78s-.24,1.94-.24,2.93v.17c0,.06,0,.11,0,.16.02.96.11,1.9.28,2.84.17.94.37,1.84.61,2.7l-1.26,1.12Z"/>
    <path class="cls-1" d="M148.14,61.68h-1.49v-10.56h1.49v10.56Z"/>
    <path class="cls-1" d="M151.1,53.88c.57,0,.97.25,1.18.74.22.48.32,1.24.32,2.27v4.79h-1.34v-4.47c0-.49-.04-.81-.09-.97s-.22-.24-.5-.25h-.32v5.68h-1.34v-7.8h2.08Z"/>
    <path class="cls-1" d="M156.95,51.12v10.56h-1.39c-.67,0-1.25-.48-1.73-1.42-.48-.95-.72-2.07-.72-3.38,0-.77.12-1.46.37-2.08.25-.62.71-.93,1.38-.93h.75v-2.75h1.34ZM155.14,55.98s-.08.01-.13.02c-.05,0-.1.01-.14.03-.1.04-.19.14-.27.28-.08.15-.12.4-.12.75v.13c.01.56.12,1.08.32,1.56.2.48.45.76.77.83h.04v-3.6h-.47Z"/>
    <path class="cls-1" d="M159.02,53.23h-1.34v-2.11h1.34v2.11ZM159.02,61.68h-1.34v-7.8h1.34v7.8Z"/>
    <path class="cls-1" d="M163.33,61.68h-1.35c-.67,0-1.25-.47-1.73-1.42-.48-.95-.72-2.07-.72-3.37,0-.77.12-1.46.37-2.07.25-.62.71-.92,1.38-.92h2.04s0,7.79,0,7.79ZM161.99,55.98h-.43s-.08.01-.13.02c-.05,0-.1.01-.14.03-.1.04-.19.14-.27.28-.08.15-.12.4-.12.75v.13c.01.56.12,1.08.32,1.55.2.48.45.75.77.83v-3.59Z"/>
    <path class="cls-1" d="M164.04,63.61c.24-.86.45-1.76.61-2.7.17-.94.26-1.89.28-2.84,0-.05,0-.11,0-.16v-.17c0-.99-.08-1.97-.24-2.93-.16-.96-.37-1.88-.62-2.77l1.28-1.14c.06.19.12.38.17.56.05.18.11.36.16.54.25.9.43,1.8.57,2.73.13.92.2,1.9.2,2.93,0,1.28-.1,2.5-.29,3.67-.19,1.17-.47,2.31-.85,3.41l-1.26-1.12Z"/>
    <path class="cls-1" d="M171.8,59.34v2.34h-1.49v-7.86h1.49v2.79c.07-.06.15-.14.23-.23.09-.09.17-.2.26-.32.19-.23.36-.5.51-.81s.23-.62.23-.94-.05-.52-.16-.61-.23-.16-.36-.17c-.03,0-.07,0-.1,0-.03,0-.06,0-.1,0h-2.29s.35-2.39.35-2.39h2.32c.7,0,1.18.31,1.46.91.27.6.41,1.25.42,1.97v.04c0,.44-.05.9-.15,1.38-.1.48-.28.97-.52,1.46-.22.42-.5.84-.84,1.26-.34.42-.76.82-1.25,1.21h0Z"/>
    <path class="cls-1" d="M174.96,61.68h-1.26v-2.38h1.26v2.38Z"/>
    <path class="cls-1" d="M177.1,61.68h-1.34v-10.56h1.34v10.56Z"/>
    <path class="cls-1" d="M179.25,53.88h.7v2.04h-.7v2.97c0,.19.02.35.07.48.04.13.14.2.28.22h.53l-.34,2.09h-.61c-.37,0-.67-.16-.91-.48-.24-.32-.36-.95-.36-1.89v-3.39h-.3v-2.04h.3v-1.52l1.34-.74v2.26Z"/>
    <path class="cls-1" d="M184.1,51.12v10.56h-1.39c-.67,0-1.25-.48-1.73-1.42-.48-.95-.72-2.07-.72-3.38,0-.77.12-1.46.37-2.08.25-.62.71-.93,1.38-.93h.75v-2.75h1.34ZM182.29,55.98s-.08.01-.13.02c-.05,0-.1.01-.14.03-.1.04-.19.14-.27.28-.08.15-.12.4-.12.75v.13c.01.56.12,1.08.32,1.56.2.48.45.76.77.83h.04v-3.6h-.47Z"/>
    <path class="cls-1" d="M186.13,61.68h-1.26v-2.38h1.26v2.38Z"/>
  </g>
  <rect class="cls-6" x="13.41" y="8.16" width="61.45" height="66.84" rx="12" ry="12"/>
  <text class="cls-7" transform="translate(87.21 72.21) scale(.93 1)"><tspan x="0" y="0">Your search ends here .....</tspan></text>
  <line class="cls-3" x1="27" y1="13.33" x2="27" y2="70.93"/>
  <text class="cls-2" transform="translate(75.74 11.72)"><tspan x="0" y="0">R</tspan></text>
  <circle class="cls-4" cx="78.12" cy="9.04" r="4.11"/>
  <polygon class="cls-5" points="63.56 38.05 57.66 38.05 62.97 17.4 68.88 17.4 63.56 38.05"/>
  <polygon class="cls-5" points="36.39 38.05 42.29 38.05 36.98 17.4 31.07 17.4 36.39 38.05"/>
  <polygon class="cls-5" points="55.8 38.05 50.56 38.02 50.57 38.05 44.66 38.05 39.34 17.4 45.25 17.4 49.59 34.25 50.84 34.25 55.38 16.31 61.29 16.35 55.8 38.05"/>
  <path class="cls-5" d="M57.14,39.77s-9.46,4.98-12.24,9.59c0,0-2.78,3.58-.72,7.56,3.15,6.07,11.84,5.23,15.18-.4.59-1,.78-2.64,1.11-4.09l4.72-5.96s4.22,13.71-8.61,20.79c-2.78,1.53-8.49,2.5-13,.84-9.24-3.4-12.58-15.17-5.25-23.35,1.66-1.86,3.38-3.84,6.02-5.11l12.79.13Z"/>
  <g>
    <path class="cls-5" d="M25.52,64.54c.58.24.71.68.71,1.4s-.12,1.16-.71,1.4l-7.03,2.82c-.23.1-.43.14-.59.14-.68,0-.9-.59-.9-1.16,0-.62.28-.95.89-1.16l6.06-2.07v-.03l-6.06-2.15c-.61-.21-.89-.55-.89-1.08,0-.57.22-1.16.9-1.16.16,0,.36.04.59.14l7.03,2.91Z"/>
    <path class="cls-5" d="M18.34,60.25c-.9,0-1.19-.53-1.19-1.34v-5.38c0-.67.17-1.16.82-1.16s.82.49.82,1.16v4.43h1.93v-3.89c0-.6.15-1.08.78-1.08s.78.48.78,1.08v3.89h2.15v-4.54c0-.67.17-1.16.82-1.16s.82.49.82,1.16v5.49c0,.81-.28,1.34-1.19,1.34h-6.53Z"/>
    <path class="cls-5" d="M18.34,50.74c-.9,0-1.19-.53-1.19-1.34v-3.82c0-2.73,1.32-3.45,2.47-3.45.97,0,1.92.64,2.14,1.73h.02c.15-1.17.9-1.38,1.81-1.38,1.03,0,1.41-.31,1.83-.31.47,0,.79.55.79,1.08,0,1.26-1.08,1.36-1.44,1.36-1.56,0-2.19.32-2.19,1.58v2.26h2.61c.61,0,1.01.45,1.01,1.15s-.41,1.15-1.01,1.15h-6.87ZM21.12,48.44v-2.29c0-.87-.2-1.73-1.2-1.73s-1.2.66-1.2,1.66v2.36h2.4Z"/>
    <path class="cls-5" d="M18.86,38.17v2.17c0,.66-.3,1.19-.85,1.19s-.85-.53-.85-1.19v-6.62c0-.66.3-1.19.85-1.19s.85.53.85,1.19v2.17h6.35c.61,0,1.01.45,1.01,1.15s-.41,1.15-1.01,1.15h-6.35Z"/>
    <path class="cls-5" d="M18.34,31.24c-.9,0-1.19-.53-1.19-1.34v-5.38c0-.67.17-1.16.82-1.16s.82.49.82,1.16v4.43h1.93v-3.89c0-.6.15-1.08.78-1.08s.78.48.78,1.08v3.89h2.15v-4.54c0-.67.17-1.16.82-1.16s.82.49.82,1.16v5.49c0,.81-.28,1.34-1.19,1.34h-6.53Z"/>
    <path class="cls-5" d="M21.47,19.92l-2.91,2.19c-.19.14-.38.24-.62.24-.53,0-.95-.49-.95-1.15,0-.55.28-.81.49-.95l2.54-1.66-2.54-1.78c-.33-.24-.49-.43-.49-.94,0-.56.27-1.1.92-1.1.17,0,.41.1.54.21l3.02,2.33,3.03-2.28c.32-.24.48-.38.72-.38.66,0,1,.53,1,1.17,0,.38-.07.7-.47.96l-2.73,1.84,2.81,1.98c.28.2.4.55.4.89,0,.67-.37,1.1-.87,1.1-.21,0-.43-.04-.78-.31l-3.1-2.4Z"/>
  </g>
</svg>